<svg xmlns="http://www.w3.org/2000/svg" viewBox="0 0 142.46 142.48"><defs><style>.cls-1{fill:#8b0ce8;}.cls-2{fill:#0d68fe;}.cls-3{fill:#e77e0c;}.cls-4{fill:#fd0000;}.cls-5{fill:#7f0000;}.cls-6{fill:#063480;}.cls-7{fill:#743f06;}.cls-8{fill:#460674;}</style></defs><g id="Layer_2" data-name="Layer 2"><g id="Layer_1-2" data-name="Layer 1"><path class="cls-1" d="M50.59,34c-.38-.75-.76-1.49-1.13-2.25a.64.64,0,0,1-.06-.28,16.09,16.09,0,0,1,2-9.33,14.87,14.87,0,0,1,7-6.1,1.59,1.59,0,0,1,2.16.71,11.35,11.35,0,0,0,8.54,5.59c4.94.58,8.79-1.35,11.56-5.47a1.65,1.65,0,0,1,2.41-.74,14.48,14.48,0,0,1,8.8,12.2,7.84,7.84,0,0,1,0,2.32.52.52,0,0,0,.26.57,38.48,38.48,0,0,1,6.34,6A25.48,25.48,0,0,1,101.3,41c-.28.17-.42-.08-.57-.22A43.35,43.35,0,0,0,87.38,32a39.79,39.79,0,0,0-7.3-2.26c-1.49-.32-3-.51-4.54-.69a71.29,71.29,0,0,0-7.16-.14,22,22,0,0,0-2.78.28c-1.22.13-2.42.41-3.62.65-.57.12-1.14.24-1.7.39a44.08,44.08,0,0,0-9.13,3.62C51,33.94,50.82,34.13,50.59,34Z"/><path class="cls-2" d="M108.5,50.63c.75-.38,1.5-.77,2.25-1.14a.68.68,0,0,1,.32-.07,19.64,19.64,0,0,1,5.3.4,14.62,14.62,0,0,1,10,8.32c.58,1.25.38,1.85-.78,2.6a11.76,11.76,0,0,0,.15,20,1.66,1.66,0,0,1,.72,2.32,14.62,14.62,0,0,1-14,8.88,1.52,1.52,0,0,0-1.47.72,38.41,38.41,0,0,1-9.49,8.76,1.3,1.3,0,0,1-.17.08c-.12-.22.06-.33.18-.45a44.89,44.89,0,0,0,5.16-6.35,41.26,41.26,0,0,0,3.25-5.9A40.84,40.84,0,0,0,111.7,84,44.22,44.22,0,0,0,113,78.57a41.36,41.36,0,0,0,.62-7.85c0-1.32-.09-2.64-.24-4A43.19,43.19,0,0,0,111,56.54a45.75,45.75,0,0,0-2.4-5.35C108.55,51,108.36,50.86,108.5,50.63Z"/><path class="cls-3" d="M91.83,108.43,93,110.67a1.46,1.46,0,0,1,.12.51,17.26,17.26,0,0,1-.87,6.73,14.51,14.51,0,0,1-6.8,7.9,7.9,7.9,0,0,1-1.61.76,1.52,1.52,0,0,1-1.89-.74,12,12,0,0,0-5.46-4.78,11.79,11.79,0,0,0-14.7,4.65,1.65,1.65,0,0,1-2.38.71,14.49,14.49,0,0,1-8-8.51,12.78,12.78,0,0,1-.79-6.09c0-.33-.2-.43-.37-.56a39.21,39.21,0,0,1-9.11-9.75c-.05-.08-.08-.17-.13-.26.28-.07.41.15.57.29A42.87,42.87,0,0,0,48.38,107a41.53,41.53,0,0,0,11.79,5.23,43.49,43.49,0,0,0,8.64,1.39,42.9,42.9,0,0,0,9-.44,40.74,40.74,0,0,0,8.74-2.34,47.13,47.13,0,0,0,4.79-2.21A1.13,1.13,0,0,1,91.83,108.43Z"/><path class="cls-4" d="M34,91.88c-.72.36-1.44.73-2.16,1.08a.84.84,0,0,1-.41.11,17.57,17.57,0,0,1-6.79-.85A14.78,14.78,0,0,1,16,84.09a1.62,1.62,0,0,1,.73-2.23,11.62,11.62,0,0,0,5.37-7.39,11.76,11.76,0,0,0-5.3-12.71,1.64,1.64,0,0,1-.71-2.42,14.52,14.52,0,0,1,10-8.42,11.2,11.2,0,0,1,4.61-.32c.28,0,.37-.14.5-.3a39.38,39.38,0,0,1,4.3-4.83,39.92,39.92,0,0,1,5.35-4.27l.14,0c.07.27-.11.42-.26.59-.72.81-1.41,1.63-2.12,2.45a36.53,36.53,0,0,0-2.88,3.89,39.78,39.78,0,0,0-3.14,5.73,42.26,42.26,0,0,0-1.79,4.66A40.39,40.39,0,0,0,29.43,64c-.19,1.16-.28,2.33-.51,3.48a1.5,1.5,0,0,0,0,.29c.05,1.36-.2,2.72-.09,4.07s.07,2.51.22,3.77c.22,1.71.47,3.41.85,5.1a38.86,38.86,0,0,0,2.49,7.48,31.92,31.92,0,0,0,1.55,3.23C34,91.58,34.12,91.73,34,91.88Z"/><path class="cls-5" d="M34,91.88C33.49,91,33,90,32.57,89.09a41.32,41.32,0,0,1-2.25-5.91,32.48,32.48,0,0,1-.95-4c-.19-1.13-.36-2.26-.48-3.41a42.85,42.85,0,0,1-.24-5.06A31.06,31.06,0,0,1,29,65.85c.2-1.27.39-2.55.68-3.82a43.21,43.21,0,0,1,1.6-5.46c.46-1.25,1-2.49,1.56-3.7A44.24,44.24,0,0,1,36,47.33a46.62,46.62,0,0,1,3.64-4.63A10.09,10.09,0,0,0,41,41.16c.24-.17.46-.34.71-.5s.48-.11.52.26V41a6.13,6.13,0,0,0,1,3.94c.48.9.9,1.83,1.37,2.73.17.31.14.47-.16.69a30.26,30.26,0,0,0-12,30.9,34.34,34.34,0,0,0,1.1,4c.12.37.25.4.6.23l21-10.39c.68-.33.68-.33,1,.34,1,1.84,2,3.7,3,5.53.18.33.13.45-.19.61q-9.24,4.55-18.48,9.12Z"/><path class="cls-6" d="M108.5,50.63a42.28,42.28,0,0,1,2.66,5.76c.48,1.31.89,2.64,1.25,4,.46,1.74.78,3.51,1.07,5.28a17.37,17.37,0,0,1,.22,2.16c0,1.48.2,3,.12,4.45s-.11,2.94-.32,4.38A48.77,48.77,0,0,1,112.44,82a43.57,43.57,0,0,1-2.88,7.79A40.33,40.33,0,0,1,105,97.13a48.23,48.23,0,0,1-3.71,4.25.39.39,0,0,0-.06.13c-.25.17-.48.5-.79.38s-.22-.56-.17-.83c.23-1.4-.54-2.49-1.09-3.64-.43-.89-.86-1.78-1.32-2.64-.17-.32-.11-.46.17-.66a30.26,30.26,0,0,0,12.5-28.07A31.89,31.89,0,0,0,109,59.3c-.15-.44-.3-.45-.68-.26q-7,3.47-13.95,6.89L87,69.57c-.28.13-.38.07-.51-.18-1-2-2.11-3.93-3.18-5.88-.17-.3-.13-.41.18-.57l24.43-12.07C108.11,50.78,108.31,50.71,108.5,50.63Z"/><path class="cls-7" d="M91.83,108.43a4.3,4.3,0,0,1-1.4.82,41.39,41.39,0,0,1-8.58,3.25,43.7,43.7,0,0,1-5.9,1.07,42.28,42.28,0,0,1-5.85.25,43.17,43.17,0,0,1-6.1-.61,42.11,42.11,0,0,1-8.47-2.37,41.44,41.44,0,0,1-6-2.94,43.52,43.52,0,0,1-8.43-6.55.64.64,0,0,0-.16-.11s-.05,0-.06-.07c-.14-.22-.46-.41-.3-.71s.48-.15.71-.13a4.87,4.87,0,0,0,2.91-.68c1.13-.63,2.32-1.15,3.47-1.74.29-.15.45-.14.66.15a30.32,30.32,0,0,0,24.58,12.72A30.51,30.51,0,0,0,83.25,109c.37-.13.38-.24.22-.57L73,87.32c-.3-.61-.3-.61.31-.95,1.85-1,3.71-2,5.54-3,.4-.23.52-.13.7.23q4.16,8.45,8.32,16.87C89.22,103.12,90.52,105.77,91.83,108.43Z"/><path class="cls-8" d="M50.59,34c1.23-.59,2.43-1.24,3.69-1.77a47.75,47.75,0,0,1,4.82-1.75,49.13,49.13,0,0,1,5.34-1.23c.69-.13,1.4-.2,2.1-.29a52,52,0,0,1,7.69-.14,27.35,27.35,0,0,1,4,.46,36.37,36.37,0,0,1,4,.87c1.35.39,2.7.8,4,1.3a41.86,41.86,0,0,1,7.94,4,40.89,40.89,0,0,1,5.86,4.53,4.4,4.4,0,0,0,1.24,1c.1.28.37.44.51.7s.11.51-.28.53h-.15a5.54,5.54,0,0,0-3.54.85c-1,.56-2,1-3,1.53-.34.17-.51.12-.73-.19A30.22,30.22,0,0,0,66.12,31.91a31.76,31.76,0,0,0-6.88,1.56c-.38.13-.41.25-.24.59q5.2,10.52,10.39,21l.06.13c.26.4.2.62-.27.86-1.89,1-3.76,2-5.63,3-.35.2-.49.14-.66-.22Q57.81,48.58,52.7,38.26,51.64,36.11,50.59,34Z"/><path class="cls-3" d="M71.82,142.48a10.64,10.64,0,1,1,10.61-10.65A10.6,10.6,0,0,1,71.82,142.48Z"/><path class="cls-1" d="M70.67,21.28A10.64,10.64,0,1,1,81.32,10.67,10.61,10.61,0,0,1,70.67,21.28Z"/><path class="cls-4" d="M0,71.79A10.64,10.64,0,1,1,10.59,82.44,10.62,10.62,0,0,1,0,71.79Z"/><path class="cls-2" d="M142.46,70.75a10.64,10.64,0,1,1-10.6-10.7A10.6,10.6,0,0,1,142.46,70.75Z"/></g></g></svg>